<mxfile host="app.diagrams.net" modified="2023-09-10T15:48:43.283Z" agent="Mozilla/5.0 (Windows NT 10.0; Win64; x64) AppleWebKit/537.36 (KHTML, like Gecko) Chrome/116.0.0.0 Safari/537.36" version="21.7.4" etag="mHOFjOXxIPO6YnpoNILt" type="github">
  <diagram name="Trang-1" id="Fhg4P4pK5fVl3K97-YhK">
    <mxGraphModel>
      <root>
        <mxCell id="0" />
        <mxCell id="1" parent="0" />
      </root>
    </mxGraphModel>
  </diagram>
</mxfile>
